<?xml version="1.0" standalone="no"?>
<!DOCTYPE svg PUBLIC "-//W3C//DTD SVG 20010904//EN"
 "http://www.w3.org/TR/2001/REC-SVG-20010904/DTD/svg10.dtd">
<svg version="1.0" xmlns="http://www.w3.org/2000/svg"
 width="920.000000pt" height="500.000000pt" viewBox="0 0 920.000000 500.000000"
 preserveAspectRatio="xMidYMid meet">

<g transform="translate(0.000000,500.000000) scale(0.100000,-0.100000)"
fill="#000000" stroke="none">
<path d="M4394 4990 c-422 -36 -825 -176 -1175 -408 -610 -407 -1001 -1036
-1100 -1772 -16 -122 -16 -488 0 -610 75 -560 317 -1056 706 -1446 71 -72 166
-159 210 -194 273 -216 604 -382 930 -466 426 -109 826 -110 1250 -4 186 46
309 92 490 180 253 124 459 272 670 484 389 391 624 872 706 1446 16 110 16
500 0 610 -65 457 -223 844 -487 1196 -331 442 -822 770 -1359 910 -252 66
-588 95 -841 74z m2012 -895 c3 -8 -8 -63 -24 -122 -41 -146 -38 -132 -62
-366 -31 -311 -58 -394 -167 -530 -147 -183 -361 -301 -653 -360 -69 -14 -137
-30 -152 -36 -100 -38 -282 -480 -452 -1096 -57 -203 -103 -434 -156 -770 -73
-463 -87 -517 -135 -535 -43 -16 -247 -13 -272 5 -29 20 -32 32 -113 404 -131
602 -275 1145 -425 1596 -199 597 -449 1048 -834 1503 -198 234 -194 228 -133
219 234 -38 757 -546 1001 -971 28 -49 77 -153 110 -230 137 -326 206 -543
351 -1094 98 -371 134 -496 159 -554 l19 -43 20 47 c12 26 73 208 138 405 329
1012 542 1460 869 1828 131 148 140 169 63 146 -108 -32 -180 -81 -308 -210
-142 -143 -232 -264 -296 -398 -25 -51 -49 -93 -53 -93 -24 0 -36 163 -22 274
21 152 88 330 174 455 45 67 153 176 222 226 128 91 194 114 538 185 133 28
312 68 397 89 177 45 189 46 196 26z"/>
</g>
</svg>
